<svg width="25" height="28" viewBox="0 0 25 28" fill="none" xmlns="http://www.w3.org/2000/svg">
<path d="M24.3304 6.78125H0.669643C0.299833 6.78125 0 6.48741 0 6.125V4.375C0 4.01259 0.299833 3.71875 0.669643 3.71875H24.3304C24.7002 3.71875 25 4.01259 25 4.375V6.125C25 6.48741 24.7002 6.78125 24.3304 6.78125ZM24.3304 15.5312H0.669643C0.299833 15.5312 0 15.2374 0 14.875V13.125C0 12.7626 0.299833 12.4688 0.669643 12.4688H24.3304C24.7002 12.4688 25 12.7626 25 13.125V14.875C25 15.2374 24.7002 15.5312 24.3304 15.5312ZM24.3304 24.2812H0.669643C0.299833 24.2812 0 23.9874 0 23.625V21.875C0 21.5126 0.299833 21.2188 0.669643 21.2188H24.3304C24.7002 21.2188 25 21.5126 25 21.875V23.625C25 23.9874 24.7002 24.2812 24.3304 24.2812Z" fill="white"/>
</svg>
