<svg width="131" height="33" viewBox="0 0 131 33" fill="none" xmlns="http://www.w3.org/2000/svg">
<path d="M53.2437 15.8815C52.4388 15.2081 51.4556 14.8713 50.2942 14.8713C49.1085 14.8713 48.1139 15.2013 47.3105 15.8613C46.5071 16.5213 46.0145 17.4249 45.8329 18.5721H54.7156C54.5354 17.4496 54.0448 16.5528 53.2437 15.8815Z" fill="white"/>
<path d="M22.0044 15.8815C21.201 15.2081 20.2178 14.8713 19.0549 14.8713C17.8699 14.8713 16.8753 15.2013 16.0712 15.8613C15.267 16.5213 14.7745 17.4249 14.5936 18.5721H23.4763C23.2961 17.4496 22.8055 16.5528 22.0044 15.8815Z" fill="white"/>
<path d="M123.817 0H0L7.18277 33H131L123.817 0ZM28.3001 21.5746H14.6585C14.8755 22.6326 15.4998 23.5669 16.4007 24.182C17.3173 24.8196 18.4574 25.1384 19.821 25.1384C20.6723 25.1532 21.5191 25.0136 22.319 24.7264C23.0769 24.4302 23.7664 23.9866 24.3462 23.4221L27.1281 26.3921C25.43 28.307 22.9499 29.2641 19.6876 29.2634C17.6536 29.2634 15.8545 28.8728 14.2903 28.0915C12.726 27.3103 11.5194 26.2253 10.6704 24.8364C9.82139 23.4506 9.39688 21.8791 9.39688 20.1221C9.39688 18.3846 9.81493 16.8173 10.651 15.4202C11.4733 14.0382 12.6682 12.9072 14.1033 12.1528C15.5703 11.373 17.2079 10.9828 19.0161 10.982C20.781 10.982 22.3772 11.3562 23.8046 12.1045C25.2178 12.837 26.3873 13.954 27.1737 15.3226C27.9892 16.7196 28.397 18.3419 28.397 20.1895C28.4001 20.2546 28.3678 20.7163 28.3001 21.5746ZM37.1167 28.9996H31.8869V4.51337H37.1167V28.9996ZM59.5406 21.5746H45.8979C46.1157 22.6325 46.7403 23.5667 47.6411 24.182C48.5532 24.8196 49.6933 25.1384 51.0615 25.1384C51.9124 25.1533 52.7589 25.0137 53.5584 24.7264C54.3168 24.4305 55.0066 23.9869 55.5866 23.4221L58.3685 26.3921C56.6698 28.307 54.1892 29.2641 50.927 29.2634C48.893 29.2634 47.0943 28.8728 45.5308 28.0915C43.9673 27.3103 42.7606 26.2253 41.9109 24.8364C41.0603 23.4506 40.6355 21.8791 40.6362 20.1221C40.6362 18.3846 41.0543 16.8173 41.8904 15.4202C42.7124 14.0379 43.9073 12.9069 45.3426 12.1528C46.8096 11.373 48.4472 10.9828 50.2554 10.982C52.0203 10.982 53.6165 11.3562 55.0439 12.1045C56.4573 12.8367 57.6269 13.9538 58.413 15.3226C59.2286 16.7196 59.6364 18.3419 59.6364 20.1895C59.6394 20.2546 59.6075 20.7163 59.5406 21.5746ZM77.8088 28.9996H61.7194V25.8971L70.9042 15.2058H61.9542V11.2458H77.5078V14.3471L68.3229 25.0396H77.8088V28.9996ZM86.3904 28.9996H81.1607V11.2458H86.3904V28.9996ZM86.1214 7.92898C85.5186 8.4902 84.7365 8.77082 83.775 8.77082C82.8135 8.77082 82.0314 8.49582 81.4286 7.94582C81.1373 7.68888 80.9056 7.37306 80.7496 7.01991C80.5936 6.66677 80.5168 6.28463 80.5245 5.89959C80.5168 5.51456 80.5936 5.13242 80.7496 4.77927C80.9056 4.42613 81.1373 4.1103 81.4286 3.85337C82.0321 3.30486 82.8143 3.03061 83.775 3.03061C84.7358 3.03061 85.5179 3.29252 86.1214 3.81633C86.4118 4.05978 86.6436 4.36369 86.8002 4.7061C86.9567 5.04852 87.0341 5.42089 87.0266 5.79633C87.0387 6.19476 86.9641 6.59114 86.808 6.95893C86.6519 7.32672 86.4178 7.65745 86.1214 7.92898V7.92898ZM95.5422 28.3396C94.9224 28.9319 94.0927 29.2632 93.2289 29.2632C92.3651 29.2632 91.5354 28.9319 90.9156 28.3396C90.2893 27.7237 89.9765 26.9537 89.9773 26.0296C89.9773 25.083 90.29 24.3186 90.9156 23.7364C91.5505 23.1736 92.3745 22.8621 93.2289 22.8621C94.0833 22.8621 94.9073 23.1736 95.5422 23.7364C96.167 24.3186 96.4798 25.083 96.4805 26.0296C96.492 26.4572 96.4148 26.8827 96.2534 27.2799C96.0921 27.6771 95.8501 28.0377 95.5422 28.3396V28.3396ZM105.262 28.9996H100.032V11.2458H105.261L105.262 28.9996ZM104.993 7.92898C104.39 8.4902 103.608 8.77082 102.646 8.77082C101.685 8.77082 100.903 8.49582 100.3 7.94582C100.008 7.68894 99.7766 7.37315 99.6204 7.02001C99.4641 6.66687 99.3872 6.2847 99.3947 5.89959C99.3872 5.51448 99.4641 5.13231 99.6204 4.77917C99.7766 4.42603 100.008 4.11024 100.3 3.85337C100.903 3.30486 101.686 3.03061 102.646 3.03061C103.607 3.03061 104.389 3.29252 104.993 3.81633C105.283 4.05993 105.515 4.36387 105.671 4.70625C105.828 5.04863 105.905 5.42093 105.898 5.79633C105.91 6.19471 105.835 6.59095 105.679 6.95868C105.523 7.3264 105.289 7.65718 104.993 7.92898V7.92898ZM119.859 28.9828C119.086 29.1729 118.292 29.2671 117.495 29.2634C115.351 29.2634 113.692 28.7246 112.517 27.647C111.343 26.5695 110.757 24.9865 110.758 22.898V15.602H107.976V11.6409H110.758V7.31837H115.987V11.6409H120.479V15.602H115.987V22.8284C115.987 23.5767 116.183 24.1544 116.574 24.5614C116.965 24.9685 117.518 25.172 118.233 25.172C119.06 25.172 119.764 24.952 120.344 24.512L121.752 28.142C121.183 28.5409 120.54 28.8265 119.859 28.9828V28.9828Z" fill="white"/>
</svg>
