<svg width="34" height="34" viewBox="0 0 34 34" fill="none" xmlns="http://www.w3.org/2000/svg">
<g clip-path="url(#clip0)">
<path d="M33.7676 31.1379L25.7059 23.0762C25.5531 22.9234 25.3539 22.8438 25.1414 22.8438H24.2648C26.3566 20.4199 27.625 17.2656 27.625 13.8125C27.625 6.18242 21.4426 0 13.8125 0C6.18242 0 0 6.18242 0 13.8125C0 21.4426 6.18242 27.625 13.8125 27.625C17.2656 27.625 20.4199 26.3566 22.8438 24.2648V25.1414C22.8438 25.3539 22.9301 25.5531 23.0762 25.7059L31.1379 33.7676C31.45 34.0797 31.9547 34.0797 32.2668 33.7676L33.7676 32.2668C34.0797 31.9547 34.0797 31.45 33.7676 31.1379ZM13.8125 24.4375C7.94219 24.4375 3.1875 19.6828 3.1875 13.8125C3.1875 7.94219 7.94219 3.1875 13.8125 3.1875C19.6828 3.1875 24.4375 7.94219 24.4375 13.8125C24.4375 19.6828 19.6828 24.4375 13.8125 24.4375Z" fill="#6886C5"/>
</g>
<defs>
<clipPath id="clip0">
<rect width="34" height="34" fill="white"/>
</clipPath>
</defs>
</svg>
